<?xml version="1.0" encoding="iso-8859-1"?>
<!-- Generator: Adobe Illustrator 19.1.0, SVG Export Plug-In . SVG Version: 6.00 Build 0)  -->
<svg xmlns="http://www.w3.org/2000/svg" xmlns:xlink="http://www.w3.org/1999/xlink" version="1.1" id="Capa_1" x="0px" y="0px" viewBox="0 0 31.058 31.058" style="enable-background:new 0 0 31.058 31.058;" xml:space="preserve" width="512px" height="512px">
<g>
	<g>
		<path d="M24.788,30.585h-0.371c-0.236,0-0.462-0.094-0.629-0.261l-8.627-8.673H0.887    C0.397,21.652,0,21.254,0,20.765V1.361c0-0.49,0.397-0.888,0.887-0.888h29.284c0.49,0,0.887,0.398,0.887,0.888v19.404    c0,0.489-0.397,0.887-0.887,0.887h-4.496v8.047C25.675,30.189,25.278,30.585,24.788,30.585z M1.774,19.876h13.755    c0.236,0,0.462,0.095,0.629,0.262l7.742,7.783v-7.156c0-0.49,0.397-0.889,0.887-0.889h4.496V2.247H1.774V19.876z" fill="#e4a769"/>
	</g>
	<g>
		<g>
			<path d="M25.626,6.253H5.551c-0.49,0-0.887-0.397-0.887-0.887c0-0.49,0.397-0.888,0.887-0.888h20.076     c0.49,0,0.887,0.397,0.887,0.888C26.514,5.857,26.117,6.253,25.626,6.253z" fill="#e4a769"/>
		</g>
		<g>
			<path d="M25.584,10.005H5.508c-0.49,0-0.888-0.396-0.888-0.887c0-0.49,0.397-0.889,0.888-0.889h20.076     c0.49,0,0.887,0.398,0.887,0.889C26.471,9.609,26.074,10.005,25.584,10.005z" fill="#e4a769"/>
		</g>
		<g>
			<path d="M25.541,13.757H5.466c-0.49,0-0.888-0.398-0.888-0.888s0.397-0.888,0.888-0.888h20.075     c0.49,0,0.888,0.398,0.888,0.888S26.031,13.757,25.541,13.757z" fill="#e4a769"/>
		</g>
		<g>
			<path d="M5.38,17.53c-0.488,0-0.885-0.395-0.887-0.884c-0.003-0.49,0.393-0.889,0.883-0.891l10.313-0.043     c0.001,0,0.003,0,0.004,0c0.488,0,0.885,0.395,0.887,0.883c0.002,0.49-0.394,0.89-0.883,0.892L5.384,17.53     C5.383,17.53,5.381,17.53,5.38,17.53z" fill="#e4a769"/>
		</g>
	</g>
</g>
<g>
</g>
<g>
</g>
<g>
</g>
<g>
</g>
<g>
</g>
<g>
</g>
<g>
</g>
<g>
</g>
<g>
</g>
<g>
</g>
<g>
</g>
<g>
</g>
<g>
</g>
<g>
</g>
<g>
</g>
</svg>
